<svg width="230" height="104" viewBox="0 0 115 52" xmlns="http://www.w3.org/2000/svg">
  <path d="M9.668 4.018c12.083-8.053 29.24-3.49 35.65 9.124 5.477 10.226 2.23 22.745-6.691 29.993l6.001 3.035c1.285.65 1.573 2.276.58 3.287-3.763 3.834-10.34 3.247-13.282-1.186l-.586-.884c-3.903 1.637-8.193 2.518-12.381 1.963-9.644-1.279-13.172-6.81-13.266-9.768-.131-3.959 3.013-4.984 5.128-5.694 4.113-1.381 8.232-.468 9.574-.41.974.042 1.956.03 2.933-.032l-.324-.594c-2.531-4.655.28-10.319 5.68-11.438 1.423-.295 2.755.767 2.692 2.146l-.373 8.104c4.068-1.823 6.998-5.053 7.044-9.924.159-7.597-5.827-14.364-13.767-15.889C16.788 4.43 11 7.411 6.855 12.466c-2.895 3.53-3.738 8.056-1 11.698l2.533 3.014c.573.762.492 1.226-.381 1.822-.874.596-3.287 2.158-4.717 2.158-.704 0-1.415-1.268-1.427-1.292C-2.453 20.797.967 9.738 9.668 4.018ZM57.91 6.91C69.89-5.15 90.664-.683 97.663 14.566c4.329 8.971 2.564 20.444-4.628 27.469-7.026 7.191-18.498 8.958-27.47 4.627C50.319 39.663 45.85 18.89 57.91 6.91Zm52.05-5.786c2.31.054 4.153 1.973 4.209 4.317l.83 37.291c.065 2.91-2.183 5.323-5.02 5.39-2.837.066-5.19-2.24-5.254-5.15a6.962 6.962 0 0 1 0-.24l.83-37.291c.054-2.44 2.026-4.373 4.405-4.317ZM74.037 6.762c-9.169-.612-16.888 7.106-16.275 16.275.78 13.643 17.611 20.957 27.524 11.25C94.995 24.37 87.68 7.541 74.037 6.761Z" fill="#33465b" fill-rule="evenodd"/>
</svg>
