<svg width="224" height="110" viewBox="0 0 112 55" xmlns="http://www.w3.org/2000/svg"><path d="M9.625 4.25C21.655-4.267 38.737.559 45.118 13.9c5.453 10.816 2.22 24.057-6.662 31.724l5.975 3.21a2.232 2.232 0 0 1 .578 3.477l-.193.202c-3.775 3.83-10.152 3.153-13.03-1.457l-.584-.935c-3.886 1.732-8.157 2.664-12.327 2.076C9.274 50.845 5.42 44.84 5.798 42.492c.179-1.126 1.6-4.68 1.6-4.68.982-2.02 10.923-2.494 12.907-2.403.97.044 1.948.032 2.92-.033l-.322-.629c-2.521-4.923.279-10.914 5.654-12.098 1.417-.312 2.743.812 2.68 2.27l-.37 8.572c4.049-1.928 6.966-5.345 7.011-10.497.159-8.035-5.8-15.193-13.705-16.805-7.459-1.504-14.218 1.65-18.344 6.996-2.883 3.735-2.887 8.966-.162 12.818l2.074 2.93c.57.806.227 1.938-.693 2.286l-3.262 1.233a1.491 1.491 0 0 1-1.89-.789.322.322 0 0 1-.041-.074C-2.442 21.997.963 10.3 9.625 4.25Zm46.7 3.874C68.174-3.882 88.72.564 95.643 15.747c4.281 8.931 2.536 20.353-4.578 27.347l-.3.304c-6.972 6.905-18.122 8.553-26.87 4.304-15.081-6.968-19.5-27.65-7.572-39.578Zm50.635-5c2.31.053 4.153 1.936 4.209 4.236l.83 36.595c.065 2.856-2.183 5.223-5.02 5.289-2.837.065-5.19-2.197-5.254-5.053a6.695 6.695 0 0 1 0-.236l.83-36.595c.054-2.394 2.026-4.29 4.405-4.236ZM72.915 8.972c-8.872-.596-16.342 6.922-15.749 15.852.755 13.29 17.042 20.414 26.635 10.958 9.395-9.658 2.316-26.05-10.886-26.81Z" fill="#33465b"/></svg>